<?xml version="1.0" encoding="UTF-8" standalone="no"?>
<!DOCTYPE svg PUBLIC "-//W3C//DTD SVG 1.1//EN"
 "http://www.w3.org/Graphics/SVG/1.1/DTD/svg11.dtd">
<!-- Generated by graphviz version 2.44.1 (20200629.0846)
 -->
<!-- Title: dependencies Pages: 1 -->
<svg width="1309pt" height="284pt"
 viewBox="0.00 0.00 1309.00 284.00" xmlns="http://www.w3.org/2000/svg" xmlns:xlink="http://www.w3.org/1999/xlink">
<g id="graph0" class="graph" transform="scale(1 1) rotate(0) translate(4 280)">
<title>dependencies</title>
<polygon fill="white" stroke="transparent" points="-4,4 -4,-280 1305,-280 1305,4 -4,4"/>
<text text-anchor="start" x="629.51" y="-42.4" font-family="sans-serif" font-weight="bold" font-size="14.00">Legend</text>
<polygon fill="#ffffb3" stroke="transparent" points="416.5,-10 416.5,-30 436.5,-30 436.5,-10 416.5,-10"/>
<text text-anchor="start" x="440.13" y="-15.4" font-family="sans-serif" font-size="14.00"> &#160;Declarations</text>
<polygon fill="#8dd3c7" stroke="transparent" points="529.5,-10 529.5,-30 549.5,-30 549.5,-10 529.5,-10"/>
<text text-anchor="start" x="553.23" y="-15.4" font-family="sans-serif" font-size="14.00"> &#160;Module</text>
<polygon fill="#80b1d3" stroke="transparent" points="615.5,-10 615.5,-30 635.5,-30 635.5,-10 615.5,-10"/>
<text text-anchor="start" x="639.28" y="-15.4" font-family="sans-serif" font-size="14.00"> &#160;Bootstrap</text>
<polygon fill="#fdb462" stroke="transparent" points="712.5,-10 712.5,-30 732.5,-30 732.5,-10 712.5,-10"/>
<text text-anchor="start" x="736.17" y="-15.4" font-family="sans-serif" font-size="14.00"> &#160;Providers</text>
<polygon fill="#fb8072" stroke="transparent" points="808.5,-10 808.5,-30 828.5,-30 828.5,-10 808.5,-10"/>
<text text-anchor="start" x="832.23" y="-15.4" font-family="sans-serif" font-size="14.00"> &#160;Exports</text>
<g id="clust1" class="cluster">
<title>cluster_AppModule</title>
<polygon fill="none" stroke="black" stroke-dasharray="1,5" points="8,-70 8,-268 1293,-268 1293,-70 8,-70"/>
</g>
<g id="clust11" class="cluster">
<title>cluster_AppModule_imports</title>
<polygon fill="none" stroke="black" points="1141,-78 1141,-130 1285,-130 1285,-78 1141,-78"/>
</g>
<g id="clust13" class="cluster">
<title>cluster_AppModule_bootstrap</title>
<polygon fill="none" stroke="black" points="586,-208 586,-260 710,-260 710,-208 586,-208"/>
</g>
<g id="clust2" class="cluster">
<title>cluster_AppModule_declarations</title>
<polygon fill="none" stroke="black" points="16,-78 16,-130 1133,-130 1133,-78 16,-78"/>
</g>
<!-- AppComponent -->
<g id="node1" class="node">
<title>AppComponent</title>
<polygon fill="#ffffb3" stroke="black" points="1124.94,-122 1019.06,-122 1019.06,-86 1124.94,-86 1124.94,-122"/>
<text text-anchor="middle" x="1072" y="-99.8" font-family="Times,serif" font-size="14.00">AppComponent</text>
</g>
<!-- AppModule -->
<g id="node9" class="node">
<title>AppModule</title>
<polygon fill="#8dd3c7" stroke="black" points="689.66,-187 686.66,-191 665.66,-191 662.66,-187 606.34,-187 606.34,-151 689.66,-151 689.66,-187"/>
<text text-anchor="middle" x="648" y="-164.8" font-family="Times,serif" font-size="14.00">AppModule</text>
</g>
<!-- AppComponent&#45;&gt;AppModule -->
<g id="edge1" class="edge">
<title>AppComponent&#45;&gt;AppModule</title>
<path fill="none" stroke="black" d="M1072,-122.13C1072,-142.57 1072,-173 1072,-173 1072,-173 699.82,-173 699.82,-173"/>
<polygon fill="black" stroke="black" points="699.82,-169.5 689.82,-173 699.82,-176.5 699.82,-169.5"/>
</g>
<!-- ContactComponent -->
<g id="node2" class="node">
<title>ContactComponent</title>
<polygon fill="#ffffb3" stroke="black" points="1001.38,-122 876.62,-122 876.62,-86 1001.38,-86 1001.38,-122"/>
<text text-anchor="middle" x="939" y="-99.8" font-family="Times,serif" font-size="14.00">ContactComponent</text>
</g>
<!-- ContactComponent&#45;&gt;AppModule -->
<g id="edge2" class="edge">
<title>ContactComponent&#45;&gt;AppModule</title>
<path fill="none" stroke="black" d="M939,-122.27C939,-140.56 939,-166 939,-166 939,-166 699.69,-166 699.69,-166"/>
<polygon fill="black" stroke="black" points="699.69,-162.5 689.69,-166 699.69,-169.5 699.69,-162.5"/>
</g>
<!-- HeaderComponent -->
<g id="node3" class="node">
<title>HeaderComponent</title>
<polygon fill="#ffffb3" stroke="black" points="858.74,-122 737.26,-122 737.26,-86 858.74,-86 858.74,-122"/>
<text text-anchor="middle" x="798" y="-99.8" font-family="Times,serif" font-size="14.00">HeaderComponent</text>
</g>
<!-- HeaderComponent&#45;&gt;AppModule -->
<g id="edge3" class="edge">
<title>HeaderComponent&#45;&gt;AppModule</title>
<path fill="none" stroke="black" d="M798,-122.01C798,-138.05 798,-159 798,-159 798,-159 699.78,-159 699.78,-159"/>
<polygon fill="black" stroke="black" points="699.78,-155.5 689.78,-159 699.78,-162.5 699.78,-155.5"/>
</g>
<!-- HomepageComponent -->
<g id="node4" class="node">
<title>HomepageComponent</title>
<polygon fill="#ffffb3" stroke="black" points="718.97,-122 577.03,-122 577.03,-86 718.97,-86 718.97,-122"/>
<text text-anchor="middle" x="648" y="-99.8" font-family="Times,serif" font-size="14.00">HomepageComponent</text>
</g>
<!-- HomepageComponent&#45;&gt;AppModule -->
<g id="edge4" class="edge">
<title>HomepageComponent&#45;&gt;AppModule</title>
<path fill="none" stroke="black" d="M648,-122.11C648,-122.11 648,-140.99 648,-140.99"/>
<polygon fill="black" stroke="black" points="644.5,-140.99 648,-150.99 651.5,-140.99 644.5,-140.99"/>
</g>
<!-- LoginComponent -->
<g id="node5" class="node">
<title>LoginComponent</title>
<polygon fill="#ffffb3" stroke="black" points="559.28,-122 444.72,-122 444.72,-86 559.28,-86 559.28,-122"/>
<text text-anchor="middle" x="502" y="-99.8" font-family="Times,serif" font-size="14.00">LoginComponent</text>
</g>
<!-- LoginComponent&#45;&gt;AppModule -->
<g id="edge5" class="edge">
<title>LoginComponent&#45;&gt;AppModule</title>
<path fill="none" stroke="black" d="M502,-122.01C502,-138.05 502,-159 502,-159 502,-159 596.16,-159 596.16,-159"/>
<polygon fill="black" stroke="black" points="596.16,-162.5 606.16,-159 596.16,-155.5 596.16,-162.5"/>
</g>
<!-- SignupComponent -->
<g id="node6" class="node">
<title>SignupComponent</title>
<polygon fill="#ffffb3" stroke="black" points="426.51,-122 305.49,-122 305.49,-86 426.51,-86 426.51,-122"/>
<text text-anchor="middle" x="366" y="-99.8" font-family="Times,serif" font-size="14.00">SignupComponent</text>
</g>
<!-- SignupComponent&#45;&gt;AppModule -->
<g id="edge6" class="edge">
<title>SignupComponent&#45;&gt;AppModule</title>
<path fill="none" stroke="black" d="M366,-122.27C366,-140.56 366,-166 366,-166 366,-166 596.09,-166 596.09,-166"/>
<polygon fill="black" stroke="black" points="596.09,-169.5 606.09,-166 596.09,-162.5 596.09,-169.5"/>
</g>
<!-- TryComponent -->
<g id="node7" class="node">
<title>TryComponent</title>
<polygon fill="#ffffb3" stroke="black" points="287.55,-122 186.45,-122 186.45,-86 287.55,-86 287.55,-122"/>
<text text-anchor="middle" x="237" y="-99.8" font-family="Times,serif" font-size="14.00">TryComponent</text>
</g>
<!-- TryComponent&#45;&gt;AppModule -->
<g id="edge7" class="edge">
<title>TryComponent&#45;&gt;AppModule</title>
<path fill="none" stroke="black" d="M237,-122.13C237,-142.57 237,-173 237,-173 237,-173 596.33,-173 596.33,-173"/>
<polygon fill="black" stroke="black" points="596.33,-176.5 606.33,-173 596.33,-169.5 596.33,-176.5"/>
</g>
<!-- WorkspaceComponent -->
<g id="node8" class="node">
<title>WorkspaceComponent</title>
<polygon fill="#ffffb3" stroke="black" points="168.3,-122 23.7,-122 23.7,-86 168.3,-86 168.3,-122"/>
<text text-anchor="middle" x="96" y="-99.8" font-family="Times,serif" font-size="14.00">WorkspaceComponent</text>
</g>
<!-- WorkspaceComponent&#45;&gt;AppModule -->
<g id="edge8" class="edge">
<title>WorkspaceComponent&#45;&gt;AppModule</title>
<path fill="none" stroke="black" d="M96,-122.01C96,-144.49 96,-180 96,-180 96,-180 596.06,-180 596.06,-180"/>
<polygon fill="black" stroke="black" points="596.06,-183.5 606.06,-180 596.06,-176.5 596.06,-183.5"/>
</g>
<!-- AppComponent  -->
<g id="node11" class="node">
<title>AppComponent </title>
<polygon fill="#80b1d3" stroke="black" points="702.44,-252 593.56,-252 593.56,-216 702.44,-216 702.44,-252"/>
<text text-anchor="middle" x="648" y="-229.8" font-family="Times,serif" font-size="14.00">AppComponent </text>
</g>
<!-- AppModule&#45;&gt;AppComponent  -->
<g id="edge10" class="edge">
<title>AppModule&#45;&gt;AppComponent </title>
<path fill="none" stroke="black" stroke-dasharray="1,5" d="M648,-187.11C648,-187.11 648,-205.99 648,-205.99"/>
<polygon fill="black" stroke="black" points="644.5,-205.99 648,-215.99 651.5,-205.99 644.5,-205.99"/>
</g>
<!-- AppRoutingModule -->
<g id="node10" class="node">
<title>AppRoutingModule</title>
<polygon fill="#8dd3c7" stroke="black" points="1277.27,-122 1274.27,-126 1253.27,-126 1250.27,-122 1148.73,-122 1148.73,-86 1277.27,-86 1277.27,-122"/>
<text text-anchor="middle" x="1213" y="-99.8" font-family="Times,serif" font-size="14.00">AppRoutingModule</text>
</g>
<!-- AppRoutingModule&#45;&gt;AppModule -->
<g id="edge9" class="edge">
<title>AppRoutingModule&#45;&gt;AppModule</title>
<path fill="none" stroke="black" d="M1213,-122.01C1213,-144.49 1213,-180 1213,-180 1213,-180 700.01,-180 700.01,-180"/>
<polygon fill="black" stroke="black" points="700.01,-176.5 690.01,-180 700.01,-183.5 700.01,-176.5"/>
</g>
</g>
</svg>
